# xmcd
#
# Track frame offsets: 
#        150
#        13655
#        29165
#        43950
#        56547
#        68797
#        81152
#        92285
#        103955
#        116837
#        126650
#        139927
#        153607
#        165505
#        179702
#        193135
#        205087
#        218577
#        228352
#        241330
#        250527
#        262965
#        278035
#        290912
#        307472
#        325282
#
# Disc length: 4562 seconds
#
# Revision: 2
# Processed by: cddbd v1.5.2PL0 Copyright (c) Steve Scherf et al.
# Submitted via: ExactAudioCopy v1.0b1
#
DISCID=9511d01a
DTITLE=Several - Blues Guitar Masters [CDOne)
DYEAR=1900
DGENRE=Unknown
TTITLE0=Robert Johnson: I'll Believe I'll Dust My Broom
TTITLE1=Muddy Waters: Country Blues
TTITLE2=T-Bone Walker: I Got a Break, Baby
TTITLE3=Lonnie Johnson: Mister Johnson's Swing
TTITLE4=Lightnin' Hopkins Lonesome: Dog Blues
TTITLE5=John Lee Hooker: House Rent Boogie
TTITLE6=Howlin' Wolf, featuring Willie Johnson: Mr. Highway Man (Alter
TTITLE6=nate)
TTITLE7=Little Milton: If You Love Me Baby
TTITLE8=J.B. Lenoir: Mojo Boogie
TTITLE9=Pat Hare: Bonus Pay
TTITLE10=Feeling Good - Junior Parker 
TTITLE11=Bad Boy 2 - Eddie Taylor 
TTITLE12=Aw Baby (Sweet Home Chicago) - Robert Lockwood
TTITLE13=The Telephone Is Ringing - Pee Wee Crayton
TTITLE14=All Your Love - Magic Sam 
TTITLE15=All Your Love (I Miss Loving) - Otis Rush 
TTITLE16=This Is The End - Buddy Guy
TTITLE17=Tell On Me Baby - Lonnie 'Guitar Junior' Brooks
TTITLE18=Number Nine Train - Tarheel Slim 
TTITLE19=Steppin' Out - Memphis Slim
TTITLE20=Blue Guitar - Earl Hooker 
TTITLE21=It Hurts Me Too - Elmore James
TTITLE22=Rough Dried Woman - Big Mac
TTITLE23=I Ain't Done Wrong - The Yardbirds
TTITLE24=Telephone Blues - John Mayall's Bluesbreakers
TTITLE25=I Smell Trouble - Ike and Tina Turner
EXTD=
EXTT0=
EXTT1=
EXTT2=
EXTT3=
EXTT4=
EXTT5=
EXTT6=
EXTT7=
EXTT8=
EXTT9=
EXTT10=
EXTT11=
EXTT12=
EXTT13=
EXTT14=
EXTT15=
EXTT16=
EXTT17=
EXTT18=
EXTT19=
EXTT20=
EXTT21=
EXTT22=
EXTT23=
EXTT24=
EXTT25=
PLAYORDER=
